<svg width="37" height="40" viewBox="0 0 37 40" fill="none" xmlns="http://www.w3.org/2000/svg">
<path d="M33.6516 16.8861V32.2954C33.6516 38.0738 31.7254 40 25.9469 40H10.5376C4.75917 40 2.83301 38.0738 2.83301 32.2954V16.8861H33.6516Z" fill="white"/>
<path d="M36.597 9.62603V11.5522C36.597 13.671 35.5762 15.4045 32.7447 15.4045H3.85232C0.905295 15.4045 0 13.671 0 11.5522V9.62603C0 7.50726 0.905295 5.77371 3.85232 5.77371H32.7447C35.5762 5.77371 36.597 7.50726 36.597 9.62603Z" fill="#06E7ED"/>
<path d="M17.6067 5.77366H6.97421C6.31931 5.06099 6.33858 3.96307 7.03199 3.26966L9.76714 0.534509C10.4798 -0.17817 11.6548 -0.17817 12.3675 0.534509L17.6067 5.77366Z" fill="white"/>
<path d="M29.6046 5.77366H18.9722L24.2113 0.534509C24.924 -0.17817 26.099 -0.17817 26.8116 0.534509L29.5468 3.26966C30.2402 3.96307 30.2595 5.06099 29.6046 5.77366Z" fill="white"/>
<path opacity="0.6" d="M12.4033 16.8861V26.7865C12.4033 28.3275 14.0983 29.2328 15.389 28.4045L17.1996 27.2103C17.8544 26.7865 18.6827 26.7865 19.3183 27.2103L21.0326 28.366C22.3039 29.2135 24.0182 28.3082 24.0182 26.7673V16.8861H12.4033Z" fill="#06E7ED"/>
</svg>
