<svg width="36" height="40" viewBox="0 0 36 40" fill="none" xmlns="http://www.w3.org/2000/svg">
<path d="M30.5037 7.34088L7.02086 30.8237C6.14076 31.7038 4.66056 31.5838 3.94047 30.5437C1.46017 26.9232 0 22.6427 0 18.2422V9.46114C0 7.82094 1.24015 5.96072 2.76033 5.34064L13.9017 0.780094C16.422 -0.260031 19.2223 -0.260031 21.7426 0.780094L29.8236 4.08047C31.1638 4.62053 31.5038 6.34076 30.5037 7.34088Z" fill="white"/>
<path d="M32.3837 10.0815C33.6839 8.98139 35.6641 9.92148 35.6641 11.6217V18.2425C35.6641 28.0236 28.5633 37.1847 18.8621 39.8651C18.202 40.0451 17.4819 40.0451 16.8018 39.8651C13.9615 39.065 11.3212 37.7248 9.06092 35.9646C8.1008 35.2245 8.00081 33.8243 8.84091 32.9642C13.2014 28.5037 25.9629 15.5022 32.3837 10.0815Z" fill="#06E7ED"/>
</svg>
