<svg width="16" height="15" viewBox="0 0 16 15" fill="none" xmlns="http://www.w3.org/2000/svg">
<path d="M11.1222 8.25077H14.8727C14.8087 11.9852 14.073 12.601 11.7779 13.9604C11.5141 14.1204 11.4261 14.4562 11.586 14.7281C11.746 14.992 12.0818 15.08 12.3537 14.92C15.0566 13.3207 16.0002 12.3451 16.0002 7.691V3.38078C16.0002 2.01334 14.8887 0.90979 13.5292 0.90979H11.1302C9.72279 0.90979 8.65922 1.97335 8.65922 3.38078V5.77979C8.65123 7.18721 9.71479 8.25077 11.1222 8.25077Z" fill="#06E7ED"/>
<path d="M2.47099 8.25077H6.22145C6.15747 11.9852 5.42178 12.601 3.12672 13.9604C2.86283 14.1204 2.77486 14.4562 2.9348 14.7281C3.09473 14.992 3.43059 15.08 3.70248 14.92C6.40537 13.3207 7.34899 12.3451 7.34899 7.691V3.38078C7.34899 2.01334 6.23744 0.90979 4.878 0.90979H2.47898C1.06356 0.90979 0 1.97335 0 3.38078V5.77979C0 7.18721 1.06356 8.25077 2.47099 8.25077Z" fill="#06E7ED"/>
</svg>
