<svg width="40" height="40" viewBox="0 0 40 40" fill="none" xmlns="http://www.w3.org/2000/svg">
<path d="M25.1929 27.4035C25.1929 34.3607 19.5536 40 12.5965 40C5.63934 40 0 34.3607 0 27.4035C0 20.4464 5.63934 14.8071 12.5965 14.8071C12.9259 14.8071 13.2747 14.8264 13.6042 14.8458C19.7474 15.3303 24.6697 20.2526 25.1542 26.3958C25.1736 26.7253 25.1929 27.0741 25.1929 27.4035Z" fill="white"/>
<path d="M40.0001 12.5965C40.0001 19.5536 34.3607 25.1929 27.4036 25.1929C27.0742 25.1929 26.7253 25.1736 26.3959 25.1542C25.9114 19.011 20.9891 14.0887 14.8459 13.6042C14.8265 13.2747 14.8071 12.9259 14.8071 12.5965C14.8071 5.63934 20.4465 0 27.4036 0C34.3607 0 40.0001 5.63934 40.0001 12.5965Z" fill="#06E7ED"/>
</svg>
