<svg width="1770" height="564" viewBox="0 0 1770 564" fill="none" xmlns="http://www.w3.org/2000/svg">
<g clip-path="url(#clip0_104_1107)">
<path d="M1769.72 93.9592C1540.34 -35.6167 1262.53 -29.7491 992.301 105.172C675.357 263.386 360.168 440.369 26.2434 275.455" stroke="#06E7ED" stroke-width="0.5" stroke-miterlimit="10" stroke-linecap="round"/>
<path d="M1766.49 117.452C1545.41 -15.6358 1263.09 -14.4245 991.146 118.219C675.402 272.832 356.359 445.737 24.9222 276.488" stroke="#06DDE7" stroke-width="0.5" stroke-miterlimit="10" stroke-linecap="round"/>
<path d="M1763.25 140.933C1550.49 4.33401 1263.63 0.911224 990.035 131.265C675.49 282.289 352.549 451.093 23.6113 277.533" stroke="#06D4E1" stroke-width="0.5" stroke-miterlimit="10" stroke-linecap="round"/>
<path d="M1760 164.426C1555.58 24.3149 1263.92 15.6469 988.936 144.323C675.268 291.079 348.829 456.461 22.3118 278.566" stroke="#06CADC" stroke-width="0.5" stroke-miterlimit="10" stroke-linecap="round"/>
<path d="M1756.77 187.918C1560.65 44.2958 1264.41 30.816 987.825 157.369C675.28 300.37 345.064 461.862 21.013 279.611" stroke="#07C1D6" stroke-width="0.5" stroke-miterlimit="10" stroke-linecap="round"/>
<path d="M1753.5 211.4C1565.73 64.2768 1264.91 46.0517 986.715 170.416C675.313 309.682 341.299 467.185 19.7243 280.655" stroke="#07B7D0" stroke-width="0.5" stroke-miterlimit="10" stroke-linecap="round"/>
<path d="M1750.29 234.893C1570.8 84.2466 1265.42 61.2208 985.604 183.473C675.357 319.017 337.479 472.552 18.4247 281.644" stroke="#07AECA" stroke-width="0.5" stroke-miterlimit="10" stroke-linecap="round"/>
<path d="M1747.06 258.374C1575.89 104.228 1265.94 76.4565 984.494 196.52C675.413 328.374 333.77 477.909 17.1591 282.733" stroke="#07A4C4" stroke-width="0.5" stroke-miterlimit="10" stroke-linecap="round"/>
<path d="M1743.81 281.867C1580.96 124.209 1266.48 91.7145 983.383 209.577C675.491 337.764 330.004 483.276 15.8372 283.778" stroke="#079BBF" stroke-width="0.5" stroke-miterlimit="10" stroke-linecap="round"/>
<path d="M1740.57 305.359C1586.04 144.189 1267.05 106.984 982.272 222.624C675.568 347.177 326.239 488.633 14.5376 284.856" stroke="#0791B9" stroke-width="0.5" stroke-miterlimit="10" stroke-linecap="round"/>
<path d="M1737.34 328.841C1591.12 164.159 1267.55 122.286 981.173 235.67C675.668 356.612 322.475 494 13.2386 285.856" stroke="#0788B3" stroke-width="0.5" stroke-miterlimit="10" stroke-linecap="round"/>
<path d="M1734.09 352.333C1596.2 184.14 1268.16 137.611 980.062 248.728C675.757 366.08 318.71 499.368 11.9501 286.901" stroke="#087EAD" stroke-width="0.5" stroke-miterlimit="10" stroke-linecap="round"/>
<path d="M1730.85 375.815C1601.28 204.121 1268.72 152.969 978.973 261.775C675.912 375.57 314.978 504.724 10.6727 287.934" stroke="#0874A7" stroke-width="0.5" stroke-miterlimit="10" stroke-linecap="round"/>
<path d="M1727.61 399.307C1606.35 224.102 1269.27 168.349 977.841 274.821C676.013 385.094 311.191 510.091 9.39572 288.979" stroke="#086BA2" stroke-width="0.5" stroke-miterlimit="10" stroke-linecap="round"/>
<path d="M1724.38 422.778C1611.43 244.061 1269.9 183.74 976.73 287.868C676.146 394.629 307.426 515.437 8.06301 290.012" stroke="#08619C" stroke-width="0.5" stroke-miterlimit="10" stroke-linecap="round"/>
<path d="M1721.13 446.281C1616.5 264.031 1270.5 199.187 975.619 300.925C676.279 404.208 303.705 520.815 6.7634 291.057" stroke="#085896" stroke-width="0.5" stroke-miterlimit="10" stroke-linecap="round"/>
<path d="M1717.89 469.774C1621.59 284.034 1271.11 214.645 974.52 313.972C676.423 413.81 299.896 526.227 5.46441 292.102" stroke="#084E90" stroke-width="0.5" stroke-miterlimit="10" stroke-linecap="round"/>
<path d="M1714.63 493.256C1626.67 304.003 1271.72 230.136 973.41 327.029C676.579 423.433 296.131 531.506 4.17604 293.146" stroke="#09458A" stroke-width="0.5" stroke-miterlimit="10" stroke-linecap="round"/>
<path d="M1711.42 516.748C1631.74 323.984 1272.48 246.139 972.299 340.054C676.879 433.546 292.366 536.885 2.87628 294.157" stroke="#093B85" stroke-width="0.5" stroke-miterlimit="10" stroke-linecap="round"/>
<path d="M1708.17 540.23C1636.82 343.965 1273.04 261.463 971.188 353.133C676.968 443.014 288.601 542.274 1.5773 295.224" stroke="#09327F" stroke-width="0.5" stroke-miterlimit="10" stroke-linecap="round"/>
<path d="M1704.94 563.722C1641.9 363.946 1273.59 276.788 970.078 366.18C677.056 452.471 284.836 547.631 0.288782 296.269" stroke="#092879" stroke-width="0.5" stroke-miterlimit="10" stroke-linecap="round"/>
</g>
<defs>
<clipPath id="clip0_104_1107">
<rect width="1770" height="564" fill="white" transform="matrix(-1 0 0 1 1770 0)"/>
</clipPath>
</defs>
</svg>
