<svg width="1440" height="960" viewBox="0 0 1440 960" fill="none" xmlns="http://www.w3.org/2000/svg">
<g clip-path="url(#clip0_94_1799)">
<mask id="mask0_94_1799" style="mask-type:luminance" maskUnits="userSpaceOnUse" x="0" y="0" width="1440" height="961">
<path d="M1440 0.346924H0V960H1440V0.346924Z" fill="white"/>
</mask>
<g mask="url(#mask0_94_1799)">
<path d="M-157.958 334.402C66.682 580.073 279.648 707.496 704.122 595.428C1147.64 478.35 1441.4 221.163 1874.34 430.367" stroke="#092879" stroke-width="0.5" stroke-miterlimit="10" stroke-linecap="round"/>
<path d="M-167.328 359.257C65.9524 603.105 292.551 722.908 708.48 603.949C1152.52 477.007 1436.49 205.463 1877.76 401.232" stroke="#093480" stroke-width="0.5" stroke-miterlimit="10" stroke-linecap="round"/>
<path d="M-176.64 384.074C65.2803 626.137 305.511 738.09 713.031 612.471C1157.41 475.49 1431.63 189.744 1881.1 372.078" stroke="#094088" stroke-width="0.5" stroke-miterlimit="10" stroke-linecap="round"/>
<path d="M-186.047 408.91C64.5126 649.168 318.356 753.041 717.428 620.993C1162.31 473.763 1426.75 174.025 1884.5 342.924" stroke="#084C8F" stroke-width="0.5" stroke-miterlimit="10" stroke-linecap="round"/>
<path d="M-195.398 433.726C63.802 672.2 331.22 767.8 721.882 629.495C1167.21 471.863 1421.88 158.306 1887.88 313.769" stroke="#085896" stroke-width="0.5" stroke-miterlimit="10" stroke-linecap="round"/>
<path d="M-204.768 458.562C63.0724 695.232 344.045 782.33 726.317 638.017C1172.06 469.733 1416.96 142.606 1891.2 284.635" stroke="#08649D" stroke-width="0.5" stroke-miterlimit="10" stroke-linecap="round"/>
<path d="M-214.118 483.398C62.3618 718.263 356.813 796.667 730.752 646.539C1176.96 467.429 1412.14 126.886 1894.64 255.48" stroke="#0870A4" stroke-width="0.5" stroke-miterlimit="10" stroke-linecap="round"/>
<path d="M-223.487 508.234C61.6327 741.295 369.524 810.813 735.188 655.061C1181.63 464.819 1407.36 111.168 1898.04 226.326" stroke="#087CAC" stroke-width="0.5" stroke-miterlimit="10" stroke-linecap="round"/>
<path d="M-232.838 533.05C60.9221 764.327 382.157 824.785 739.642 663.563C1186.29 462.151 1402.39 95.4484 1901.42 197.172" stroke="#0888B3" stroke-width="0.5" stroke-miterlimit="10" stroke-linecap="round"/>
<path d="M-242.208 557.886C60.1925 787.358 394.733 838.566 744.077 672.104C1190.86 459.176 1397.51 79.7486 1904.79 168.037" stroke="#0793BA" stroke-width="0.5" stroke-miterlimit="10" stroke-linecap="round"/>
<path d="M-251.52 582.722C59.5205 810.39 407.232 852.173 748.551 680.607C1195.37 456.048 1392.67 64.0293 1908.23 138.882" stroke="#079FC2" stroke-width="0.5" stroke-miterlimit="10" stroke-linecap="round"/>
<path d="M-260.928 607.558C58.7523 833.422 419.578 865.647 752.947 689.128C1199.65 452.593 1387.78 48.3295 1911.55 109.747" stroke="#07ABC9" stroke-width="0.5" stroke-miterlimit="10" stroke-linecap="round"/>
<path d="M-270.278 632.375C58.0417 856.454 431.866 878.967 757.402 697.631C1203.84 448.966 1382.9 32.5915 1914.95 80.5741" stroke="#07B7D0" stroke-width="0.5" stroke-miterlimit="10" stroke-linecap="round"/>
<path d="M-279.647 657.211C57.3126 879.485 444.039 892.153 761.837 706.153C1207.83 445.127 1378.02 16.8915 1918.33 51.4391" stroke="#07C3D7" stroke-width="0.5" stroke-miterlimit="10" stroke-linecap="round"/>
<path d="M-288.998 682.046C56.6019 902.517 456.077 905.223 766.272 714.674C1211.65 441.058 1373.15 1.17202 1921.71 22.2844" stroke="#06CFDF" stroke-width="0.5" stroke-miterlimit="10" stroke-linecap="round"/>
<path d="M-298.368 706.882C55.8724 925.549 468.02 918.198 770.708 723.196C1215.36 436.778 1368.27 -14.5469 1925.09 -6.86963" stroke="#06DBE6" stroke-width="0.5" stroke-miterlimit="10" stroke-linecap="round"/>
<path d="M-307.718 731.699C55.1617 948.58 479.827 931.076 775.162 731.699C1218.68 432.287 1363.41 -30.266 1928.49 -36.0239" stroke="#06E7ED" stroke-width="0.5" stroke-miterlimit="10" stroke-linecap="round"/>
</g>
</g>
<defs>
<clipPath id="clip0_94_1799">
<rect width="1440" height="960" fill="white"/>
</clipPath>
</defs>
</svg>
