<svg width="16" height="17" viewBox="0 0 16 17" fill="none" xmlns="http://www.w3.org/2000/svg">
<path fill-rule="evenodd" clip-rule="evenodd" d="M15.9321 8.70751C15.9321 13.1039 12.3683 16.6677 7.97192 16.6677C3.57558 16.6677 0.0117188 13.1039 0.0117188 8.70751C0.0117188 4.31118 3.57558 0.747314 7.97192 0.747314C12.3683 0.747314 15.9321 4.31118 15.9321 8.70751Z" fill="#FFC246"/>
<path fill-rule="evenodd" clip-rule="evenodd" d="M11.5351 7.62052C11.6997 6.50249 10.8569 5.89814 9.69983 5.49525L10.0739 3.98439L9.14127 3.74768L8.77222 5.22833L8.0441 5.05206L8.40816 3.56638L7.49551 3.33472L7.12148 4.84558L5.27623 4.39232L5.05181 5.37941C5.05181 5.37941 5.73006 5.53554 5.7151 5.54561C5.9728 5.58441 6.15749 5.817 6.13901 6.07944L5.14158 10.2393C5.11518 10.3249 5.0562 10.3963 4.97761 10.4379C4.89903 10.4794 4.80731 10.4877 4.72266 10.4609L4.00949 10.2897L3.55566 11.3473L4.74759 11.6495L5.40091 11.8207L5.02189 13.3316L5.93453 13.5582L6.30857 12.0473L7.04667 12.2589L6.67263 13.7697L7.59027 14.0014L7.96929 12.4653C9.53027 12.7675 10.7023 12.6466 11.196 11.2214C11.595 10.0731 11.196 9.40837 10.3581 8.98029C11.0105 8.84909 11.4936 8.2909 11.5351 7.62052ZM9.44549 10.5818C9.16122 11.7301 7.24616 11.0854 6.62775 10.9545L7.12646 8.94C7.72991 9.07598 9.71978 9.37815 9.42554 10.5818H9.44549ZM9.72477 7.60541C9.47042 8.6479 7.87454 8.10903 7.36086 7.98816L7.79474 6.14491C8.31341 6.27586 9.97413 6.51759 9.70482 7.60541H9.72477Z" fill="white"/>
</svg>
