<svg width="16" height="16" viewBox="0 0 16 16" fill="none" xmlns="http://www.w3.org/2000/svg">
<path fill-rule="evenodd" clip-rule="evenodd" d="M15.9321 8.0393C15.9321 12.4356 12.3683 15.9995 7.97192 15.9995C3.57558 15.9995 0.0117188 12.4356 0.0117188 8.0393C0.0117188 3.64296 3.57558 0.0791016 7.97192 0.0791016C12.3683 0.0791016 15.9321 3.64296 15.9321 8.0393Z" fill="#FFC246"/>
<path fill-rule="evenodd" clip-rule="evenodd" d="M11.5351 6.95231C11.6997 5.83427 10.8569 5.22993 9.69983 4.82703L10.0739 3.31617L9.14127 3.07947L8.77222 4.56011L8.0441 4.38385L8.40816 2.89817L7.49551 2.6665L7.12148 4.17736L5.27623 3.72411L5.05181 4.7112C5.05181 4.7112 5.73006 4.86732 5.7151 4.87739C5.9728 4.9162 6.15749 5.14878 6.13901 5.41123L5.14158 9.57113C5.11518 9.65666 5.0562 9.72807 4.97761 9.76964C4.89903 9.8112 4.80731 9.81951 4.72266 9.79272L4.00949 9.62149L3.55566 10.6791L4.74759 10.9813L5.40091 11.1525L5.02189 12.6634L5.93453 12.89L6.30857 11.3791L7.04667 11.5906L6.67263 13.1015L7.59027 13.3332L7.96929 11.7971C9.53027 12.0993 10.7023 11.9784 11.196 10.5532C11.595 9.40494 11.196 8.74016 10.3581 8.31208C11.0105 8.18088 11.4936 7.62268 11.5351 6.95231ZM9.44549 9.91359C9.16122 11.0618 7.24616 10.4172 6.62775 10.2863L7.12646 8.27179C7.72991 8.40777 9.71978 8.70994 9.42554 9.91359H9.44549ZM9.72477 6.9372C9.47042 7.97969 7.87454 7.44082 7.36086 7.31995L7.79474 5.4767C8.31341 5.60764 9.97413 5.84938 9.70482 6.9372H9.72477Z" fill="white"/>
</svg>
