<svg width="18" height="16" viewBox="0 0 18 16" fill="none" xmlns="http://www.w3.org/2000/svg">
<path fill-rule="evenodd" clip-rule="evenodd" d="M11.3749 0.64953C10.6429 0.338956 9.83946 0.167969 8.99967 0.167969C5.89839 0.167969 3.29305 2.49986 2.95057 5.58217L2.69877 7.84839L2.69252 7.90422C2.57163 8.95769 2.22873 9.97354 1.68645 10.8848L1.65758 10.933L1.07955 11.8964L1.06562 11.9196C0.815191 12.3369 0.607741 12.6827 0.472904 12.969C0.336814 13.2579 0.231922 13.5705 0.284193 13.9018C0.340705 14.2599 0.525037 14.5855 0.803082 14.8182C1.06026 15.0335 1.38224 15.1043 1.70004 15.1363C2.01491 15.168 2.4181 15.168 2.90483 15.168H2.9319H15.0674H15.0945C15.5812 15.168 15.9844 15.168 16.2993 15.1363C16.6171 15.1043 16.9391 15.0335 17.1963 14.8182C17.4743 14.5855 17.6586 14.2599 17.7152 13.9018C17.7674 13.5705 17.6625 13.2579 17.5264 12.969C17.3916 12.6827 17.1842 12.337 16.9338 11.9197L16.9337 11.9196L16.9198 11.8964L16.3418 10.933L16.3129 10.8848C15.7706 9.97354 15.4277 8.95769 15.3068 7.90422L15.3006 7.84839L15.2581 7.46599C14.9452 7.56962 14.6152 7.63565 14.2733 7.65875L14.3067 7.95882L14.3133 8.01823C14.4504 9.21215 14.839 10.3635 15.4536 11.3962L15.4843 11.4475L16.0623 12.4108C16.3302 12.8573 16.511 13.1598 16.6218 13.395C16.7338 13.6329 16.7317 13.7183 16.7274 13.7459C16.7085 13.8653 16.6471 13.9738 16.5544 14.0514C16.533 14.0693 16.4608 14.115 16.1992 14.1413C15.9405 14.1674 15.5881 14.168 15.0674 14.168H2.9319C2.41122 14.168 2.05887 14.1674 1.80014 14.1413C1.53852 14.115 1.46633 14.0693 1.44494 14.0514C1.35225 13.9738 1.29081 13.8653 1.27197 13.7459C1.26762 13.7183 1.26556 13.6329 1.37759 13.395C1.48838 13.1598 1.66915 12.8573 1.93704 12.4108L2.51507 11.4475L2.54578 11.3962C3.16037 10.3635 3.54899 9.21215 3.686 8.01823L3.69265 7.95882L3.94446 5.6926C4.23067 3.11672 6.40794 1.16797 8.99967 1.16797C9.58335 1.16797 10.146 1.26681 10.6708 1.44939C10.8692 1.15232 11.1063 0.883293 11.3749 0.64953ZM13.1889 1.83911C12.8741 1.97886 12.6022 2.19748 12.3981 2.46989C13.2928 3.27337 13.904 4.39279 14.052 5.6673C14.4066 5.65818 14.7383 5.55677 15.0238 5.38619C14.823 3.98831 14.1546 2.75518 13.1889 1.83911Z" fill="#E4E4E4"/>
</svg>
