<svg width="24" height="25" viewBox="0 0 24 25" fill="none" xmlns="http://www.w3.org/2000/svg">
<path d="M3.93592 6.54806H7.65645C7.74997 6.54805 7.84165 6.52172 7.92122 6.472C8.00079 6.42228 8.06513 6.35114 8.10703 6.26654L8.69771 5.07212C8.78137 4.90271 8.90998 4.76022 9.06914 4.6606C9.22829 4.56098 9.41172 4.50816 9.59887 4.50806H14.401C14.5881 4.50816 14.7715 4.56098 14.9307 4.6606C15.0899 4.76022 15.2185 4.90271 15.3021 5.07212L15.8928 6.26552C15.9346 6.35031 15.9988 6.42166 16.0784 6.47157C16.158 6.52147 16.2498 6.54796 16.3434 6.54806H20.0639C20.5986 6.54806 21.1114 6.76298 21.4894 7.14556C21.8675 7.52813 22.0799 8.04701 22.0799 8.58806V18.7881C22.0799 19.3291 21.8675 19.848 21.4894 20.2306C21.1114 20.6131 20.5986 20.8281 20.0639 20.8281H3.93592C3.40125 20.8281 2.88847 20.6131 2.51039 20.2306C2.13232 19.848 1.91992 19.3291 1.91992 18.7881V8.58806C1.91992 8.04701 2.13232 7.52813 2.51039 7.14556C2.88847 6.76298 3.40125 6.54806 3.93592 6.54806Z" stroke="#8B94AC"/>
<path d="M11.9999 17.7681C14.2267 17.7681 16.0319 15.9414 16.0319 13.6881C16.0319 11.4347 14.2267 9.60806 11.9999 9.60806C9.77311 9.60806 7.96792 11.4347 7.96792 13.6881C7.96792 15.9414 9.77311 17.7681 11.9999 17.7681Z" stroke="#8B94AC"/>
</svg>
