<svg width="24" height="25" viewBox="0 0 24 25" fill="none" xmlns="http://www.w3.org/2000/svg">
<path d="M11.9999 15.6919C11.6028 15.6919 11.2096 15.6137 10.8427 15.4617C10.4758 15.3097 10.1424 15.087 9.86164 14.8062C9.58084 14.5254 9.35809 14.192 9.20612 13.8251C9.05415 13.4582 8.97594 13.065 8.97594 12.6679C8.97594 12.2708 9.05415 11.8775 9.20612 11.5107C9.35809 11.1438 9.58084 10.8104 9.86164 10.5296C10.1424 10.2488 10.4758 10.026 10.8427 9.87408C11.2096 9.72211 11.6028 9.64389 11.9999 9.64389C12.8019 9.64389 13.5711 9.96249 14.1382 10.5296C14.7053 11.0967 15.0239 11.8659 15.0239 12.6679C15.0239 13.4699 14.7053 14.2391 14.1382 14.8062C13.5711 15.3733 12.8019 15.6919 11.9999 15.6919ZM11.9999 14.6839C12.5346 14.6839 13.0474 14.4715 13.4254 14.0934C13.8035 13.7153 14.0159 13.2026 14.0159 12.6679C14.0159 12.1332 13.8035 11.6204 13.4254 11.2424C13.0474 10.8643 12.5346 10.6519 11.9999 10.6519C11.4652 10.6519 10.9525 10.8643 10.5744 11.2424C10.1963 11.6204 9.98393 12.1332 9.98393 12.6679C9.98393 13.2026 10.1963 13.7153 10.5744 14.0934C10.9525 14.4715 11.4652 14.6839 11.9999 14.6839Z" fill="#8B94AC"/>
<path fill-rule="evenodd" clip-rule="evenodd" d="M2.93301 14.6839C2.79964 14.6842 2.66755 14.658 2.54432 14.607C2.42109 14.556 2.30918 14.4811 2.21502 14.3867C2.12085 14.2923 2.04631 14.1801 1.99567 14.0567C1.94503 13.9334 1.91931 13.8012 1.91997 13.6678V11.668C1.91864 11.5348 1.94374 11.4028 1.99382 11.2794C2.04391 11.1561 2.11798 11.0439 2.21174 10.9494C2.3055 10.8549 2.41709 10.7799 2.54003 10.7288C2.66298 10.6778 2.79484 10.6516 2.92797 10.6519H4.18998C4.37659 9.92243 4.6661 9.22326 5.0498 8.57541L4.12345 7.64301C3.7646 7.24283 3.77267 6.63501 4.15369 6.25298L5.58504 4.82162C5.67914 4.72821 5.79074 4.65428 5.91345 4.60407C6.03617 4.55386 6.16758 4.52835 6.30017 4.529C6.43275 4.52966 6.56391 4.55647 6.68612 4.60789C6.80833 4.65931 6.91919 4.73434 7.01236 4.82867L7.90847 5.71773C8.5566 5.33556 9.25527 5.04646 9.98393 4.85891V3.59589C9.98393 3.07778 10.4476 2.58789 10.9919 2.58789H13.0079C13.5694 2.58789 14.0159 3.03141 14.0159 3.59589V4.85891C14.7449 5.04637 15.4439 5.33547 16.0924 5.71773L16.9875 4.82867C17.0807 4.7344 17.1916 4.65946 17.3139 4.60812C17.4361 4.55678 17.5673 4.53007 17.6999 4.52951C17.8325 4.52895 17.9639 4.55455 18.0865 4.60485C18.2092 4.65514 18.3208 4.72915 18.4148 4.82263L19.8462 6.25399C20.0282 6.4374 20.1328 6.68379 20.1382 6.94215C20.1436 7.20051 20.0495 7.45108 19.8754 7.642C19.8754 7.642 19.4722 8.05125 18.95 8.57541C19.3337 9.22326 19.6233 9.92243 19.8099 10.6519H21.0719C21.6333 10.6519 22.0799 11.1025 22.0799 11.668V13.6678C22.0812 13.8009 22.0561 13.933 22.006 14.0564C21.9559 14.1797 21.8819 14.2919 21.7881 14.3864C21.6943 14.4809 21.5828 14.5559 21.4598 14.6069C21.3369 14.658 21.205 14.6842 21.0719 14.6839H19.8099C19.6233 15.4133 19.3337 16.1125 18.95 16.7604L19.8391 17.6555C19.9334 17.7487 20.0083 17.8596 20.0597 17.9819C20.111 18.1041 20.1377 18.2353 20.1383 18.3679C20.1388 18.5005 20.1132 18.6319 20.0629 18.7545C20.0126 18.8772 19.9386 18.9888 19.8451 19.0828L18.4138 20.5142C18.3197 20.6074 18.2082 20.6812 18.0856 20.7313C17.9629 20.7815 17.8316 20.8069 17.6992 20.8063C17.5667 20.8056 17.4357 20.7789 17.3136 20.7275C17.1914 20.6762 17.0806 20.6013 16.9875 20.5071L16.0914 19.618C15.4432 20.0002 14.7446 20.2893 14.0159 20.4769V21.7348C14.0159 22.2993 13.5623 22.7479 12.9999 22.7479H11C10.8667 22.7484 10.7346 22.7226 10.6112 22.6719C10.4879 22.6212 10.3758 22.5467 10.2814 22.4525C10.187 22.3584 10.1121 22.2465 10.0611 22.1234C10.01 22.0002 9.9838 21.8682 9.98393 21.7348V20.4769C9.25492 20.2894 8.55591 20.0003 7.90746 19.618L7.01236 20.5071C6.91913 20.6014 6.80821 20.6763 6.68596 20.7277C6.56372 20.779 6.43254 20.8057 6.29996 20.8063C6.16737 20.8068 6.03598 20.7812 5.9133 20.7309C5.79062 20.6806 5.67907 20.6066 5.58504 20.5131L4.15369 19.0818C4.06043 18.9877 3.98663 18.8762 3.93651 18.7536C3.88639 18.6309 3.86093 18.4996 3.86158 18.3672C3.86224 18.2347 3.889 18.1037 3.94033 17.9815C3.99166 17.8594 4.06656 17.7486 4.16075 17.6555L5.0498 16.7604C4.6661 16.1125 4.37659 15.4133 4.18998 14.6839H2.93301ZM6.33801 8.44134L6.1092 8.78406C5.61061 9.53401 5.26277 10.3738 5.08508 11.2567L5.00242 11.6599H2.93301C2.92998 11.6599 2.92797 12.3292 2.92797 13.6678C2.92797 13.6729 3.61945 13.6759 5.00242 13.6759L5.08508 14.0791C5.26652 14.9692 5.60923 15.8028 6.1092 16.5517L6.33801 16.8944L4.87642 18.3661C4.87239 18.3691 5.34615 18.8469 6.2977 19.7995L7.7734 18.3298L8.11612 18.5586C8.86726 19.0557 9.7071 19.4034 10.5897 19.5828L10.9919 19.6664V21.7348C10.9919 21.7379 11.6612 21.7399 12.9999 21.7399C13.0049 21.7399 13.0079 21.0484 13.0079 19.6664L13.4101 19.5828C14.2928 19.4034 15.1326 19.0557 15.8837 18.5586L16.2264 18.3298L17.6981 19.7914C17.7011 19.7955 18.1789 19.3217 19.1315 18.3701L17.6618 16.8944L17.8906 16.5517C18.3892 15.8018 18.7371 14.9619 18.9148 14.0791L18.9974 13.6759H21.0668C21.0699 13.6759 21.0719 13.0066 21.0719 11.668C21.0719 11.6629 20.3804 11.6599 18.9974 11.6599L18.9148 11.2567C18.7371 10.3738 18.3892 9.53401 17.8906 8.78406L17.6618 8.44134L19.0488 7.04627L19.1305 6.96362L17.7032 5.53629L16.2264 7.00595L15.8837 6.77714C15.1326 6.28012 14.2928 5.93241 13.4101 5.75301L13.0079 5.66935V3.59589C13.0079 3.59287 12.3386 3.59287 11 3.59589C10.995 3.59589 10.9919 4.28738 10.9919 5.66935L10.5897 5.75301C9.7071 5.93241 8.86726 6.28012 8.11612 6.77714L7.7734 7.00595L6.30173 5.54435C6.2987 5.54032 5.82091 6.01408 4.86937 6.96362L6.33801 8.44134Z" fill="#8B94AC"/>
</svg>
