<svg width="24" height="25" viewBox="0 0 24 25" fill="none" xmlns="http://www.w3.org/2000/svg">
<path d="M3.5586 16.4253L8.0226 11.9613C8.19259 11.7907 8.39457 11.6554 8.61697 11.5631C8.83936 11.4707 9.0778 11.4232 9.3186 11.4232C9.55941 11.4232 9.79784 11.4707 10.0202 11.5631C10.2426 11.6554 10.4446 11.7907 10.6146 11.9613L13.1039 14.4506C13.363 14.7103 13.6708 14.9163 14.0097 15.0568C14.3485 15.1974 14.7118 15.2697 15.0786 15.2697C15.4455 15.2697 15.8087 15.1974 16.1475 15.0568C16.4864 14.9163 16.7942 14.7103 17.0533 14.4506L21.5173 9.98658L20.8386 9.30786L16.3746 13.7719C16.2046 13.9424 16.0026 14.0777 15.7802 14.1701C15.5578 14.2624 15.3194 14.31 15.0786 14.31C14.8378 14.31 14.5994 14.2624 14.377 14.1701C14.1546 14.0777 13.9526 13.9424 13.7826 13.7719L11.2933 11.2826C11.0342 11.0229 10.7264 10.8169 10.3875 10.6763C10.0487 10.5358 9.68545 10.4634 9.3186 10.4634C8.95176 10.4634 8.58851 10.5358 8.24966 10.6763C7.91081 10.8169 7.60301 11.0229 7.34388 11.2826L2.87988 15.7466L3.5586 16.4253Z" fill="#8B94AC"/>
</svg>
