<svg width="17" height="11" viewBox="0 0 17 11" fill="none" xmlns="http://www.w3.org/2000/svg">
<path d="M0.999999 5.16797L0.646446 5.52152L0.292892 5.16797L0.646446 4.81442L0.999999 5.16797ZM16.5 10.168C16.5 10.4441 16.2761 10.668 16 10.668C15.7239 10.668 15.5 10.4441 15.5 10.168L16.5 10.168ZM4.64645 9.52152L0.646446 5.52152L1.35355 4.81442L5.35355 8.81441L4.64645 9.52152ZM0.646446 4.81442L4.64645 0.814414L5.35355 1.52152L1.35355 5.52152L0.646446 4.81442ZM0.999999 4.66797L12 4.66797L12 5.66797L0.999999 5.66797L0.999999 4.66797ZM16.5 9.16797L16.5 10.168L15.5 10.168L15.5 9.16797L16.5 9.16797ZM12 4.66797C14.4853 4.66797 16.5 6.68268 16.5 9.16797L15.5 9.16797C15.5 7.23497 13.933 5.66797 12 5.66797L12 4.66797Z" fill="white" fill-opacity="0.8"/>
</svg>
