<svg width="21" height="20" viewBox="0 0 21 20" fill="none" xmlns="http://www.w3.org/2000/svg">
<path d="M18.5818 0H2.41819C1.3588 0 0.5 0.858802 0.5 1.91819V18.0818C0.5 19.1412 1.3588 20 2.41819 20H18.5818C19.6412 20 20.5 19.1412 20.5 18.0818V1.91819C20.5 0.858802 19.6412 0 18.5818 0Z" fill="#112D44"/>
<path d="M8.36372 10.9775C8.37756 10.3205 8.39141 9.66852 8.40525 9.00899L7.72684 9.04801L6.07045 9.14618C5.59413 9.15587 5.1318 9.30895 4.74383 9.58545C3.48518 10.5294 3.66139 12.0172 4.41155 12.8038C4.72621 13.1349 5.05472 13.452 5.37819 13.7742C6.13338 14.5294 6.88858 15.2947 7.6551 16.0486C7.99078 16.376 8.4234 16.5858 8.88827 16.6469C9.35314 16.7079 9.82528 16.6168 10.2341 16.3872C10.9289 15.9844 11.2536 15.345 11.3002 14.5609C11.3467 13.7768 11.3706 12.9637 11.4046 12.1695L11.635 6.69684C11.635 6.55713 11.6438 6.41742 11.6501 6.27645C11.6516 6.12556 11.6995 5.97879 11.7873 5.85606C11.8376 5.77823 11.9125 5.71947 12.0001 5.68914C12.0877 5.6588 12.1829 5.65864 12.2706 5.68866C12.4024 5.73352 12.5233 5.80556 12.6255 5.90011C13.3228 6.5823 14.0134 7.27079 14.6973 7.96556C14.7864 8.06374 14.8522 8.18076 14.8898 8.30792C14.9066 8.35144 14.9141 8.39793 14.9121 8.44451C14.9101 8.49109 14.8985 8.53675 14.8781 8.57866C14.8577 8.62057 14.8288 8.65783 14.7934 8.68813C14.758 8.71842 14.7167 8.74109 14.6721 8.75474C14.4818 8.82284 14.2833 8.86517 14.0818 8.88061C13.6362 8.91081 13.1907 8.91333 12.7338 8.92592C12.6998 9.58545 12.6645 10.2387 12.6293 10.9033L13.1542 10.8831C13.7709 10.8592 14.3864 10.8416 15.0019 10.8101C15.4679 10.7995 15.9202 10.6501 16.3008 10.3809C16.5412 10.2139 16.7448 9.99932 16.8989 9.75046C17.0531 9.5016 17.1545 9.22376 17.197 8.93412C17.2395 8.64448 17.2221 8.34921 17.1459 8.06657C17.0696 7.78393 16.9362 7.51994 16.7539 7.29093C16.6584 7.17992 16.5563 7.07484 16.448 6.97626C15.4512 5.96934 14.4581 4.96242 13.4562 3.97312C12.7665 3.28715 11.9458 3.12478 11.0472 3.46965C10.4178 3.70628 10.0402 4.19464 9.85145 4.829C9.78739 5.06047 9.75146 5.29881 9.74446 5.53888C9.66265 7.33624 9.58965 9.13359 9.51413 10.9322C9.47469 11.8477 9.43609 12.7631 9.39833 13.6786C9.39641 13.7284 9.39137 13.778 9.38323 13.8271C9.30267 14.284 8.8999 14.4489 8.53615 14.1644C8.36551 14.0203 8.20369 13.8661 8.05157 13.7025C7.49693 13.1504 6.94354 12.5966 6.39141 12.0411C6.28326 11.9407 6.20449 11.8128 6.16359 11.671C6.134 11.5791 6.14074 11.4794 6.18241 11.3923C6.22407 11.3052 6.29751 11.2374 6.38763 11.2028C6.62172 11.1142 6.86988 11.0686 7.12017 11.0681L8.36372 10.9775Z" fill="#06E7ED"/>
</svg>
