<svg width="37" height="40" viewBox="0 0 37 40" fill="none" xmlns="http://www.w3.org/2000/svg">
<path d="M33.6513 16.8861V32.2954C33.6513 38.0739 31.7252 40 25.9467 40H10.5374C4.75892 40 2.83276 38.0739 2.83276 32.2954V16.8861H33.6513Z" fill="white"/>
<path d="M36.597 9.626V11.5522C36.597 13.6709 35.5762 15.4045 32.7447 15.4045H3.85232C0.905295 15.4045 0 13.6709 0 11.5522V9.626C0 7.50723 0.905295 5.77368 3.85232 5.77368H32.7447C35.5762 5.77368 36.597 7.50723 36.597 9.626Z" fill="#06E7ED"/>
<path d="M17.6066 5.77366H6.97409C6.31919 5.06099 6.33845 3.96307 7.03187 3.26966L9.76702 0.534509C10.4797 -0.17817 11.6547 -0.17817 12.3673 0.534509L17.6066 5.77366Z" fill="white"/>
<path d="M29.6044 5.77366H18.972L24.2111 0.534509C24.9238 -0.17817 26.0988 -0.17817 26.8115 0.534509L29.5466 3.26966C30.24 3.96307 30.2593 5.06099 29.6044 5.77366Z" fill="white"/>
<path opacity="0.6" d="M12.4034 16.8861V26.7866C12.4034 28.3275 14.0985 29.2328 15.3891 28.4045L17.1997 27.2103C17.8546 26.7866 18.6828 26.7866 19.3185 27.2103L21.0327 28.366C22.304 29.2135 24.0183 28.3082 24.0183 26.7673V16.8861H12.4034Z" fill="#06E7ED"/>
</svg>
