<svg width="41" height="40" viewBox="0 0 41 40" fill="none" xmlns="http://www.w3.org/2000/svg">
<path d="M20.0002 26.1144V27.2493H1.39551V26.1144C1.39551 22.84 2.21406 22.0214 5.52569 22.0214H15.87C19.1816 22.0214 20.0002 22.84 20.0002 26.1144Z" fill="#06E7ED"/>
<path d="M1.39551 28.0187V30.8094V34.5117C1.39551 37.7861 2.21406 38.6048 5.52569 38.6048H15.87C19.1816 38.6048 20.0002 37.7861 20.0002 34.5117V30.8094V28.0187H1.39551Z" fill="white"/>
<path fill-rule="evenodd" clip-rule="evenodd" d="M38.6046 24.186C39.3752 24.186 40 24.8108 40 25.5814C40 33.552 33.552 40 25.5814 40C25.0787 40 24.6148 39.7297 24.3672 39.2921C24.1194 38.8547 24.1263 38.3178 24.3849 37.8867L26.3384 34.6309C26.7348 33.97 27.592 33.7559 28.2528 34.1524C28.9134 34.5488 29.1278 35.4059 28.7313 36.0668L28.2266 36.9081C33.3784 35.7127 37.2093 31.1006 37.2093 25.5814C37.2093 24.8108 37.834 24.186 38.6046 24.186Z" fill="white"/>
<path fill-rule="evenodd" clip-rule="evenodd" d="M11.7734 3.09198C6.62158 4.28718 2.7907 8.89939 2.7907 14.4186C2.7907 15.1892 2.16597 15.814 1.39535 15.814C0.624726 15.814 0 15.1892 0 14.4186C0 6.44798 6.44798 0 14.4186 0C14.9213 0 15.3852 0.2704 15.6328 0.707851C15.8805 1.1453 15.8738 1.68218 15.6151 2.11325L13.6616 5.36906C13.2652 6.02986 12.4081 6.24415 11.7472 5.84767C11.0864 5.45118 10.8721 4.59408 11.2686 3.93327L11.7734 3.09198Z" fill="white"/>
<path d="M40.4649 10.5367H23.7207C23.7207 15.1506 27.4788 18.9088 32.0928 18.9088C36.7254 18.9088 40.4649 15.1506 40.4649 10.5367Z" fill="#06E7ED"/>
<path d="M40.4649 9.76748C40.4649 5.13492 36.7254 1.39539 32.0928 1.39539C27.4788 1.39539 23.7207 5.13492 23.7207 9.76748H40.4649Z" fill="white"/>
</svg>
