<svg width="41" height="40" viewBox="0 0 41 40" fill="none" xmlns="http://www.w3.org/2000/svg">
<path d="M31.2911 23.3149C30.4618 24.1245 29.9879 25.2895 30.1064 26.5335C30.2841 28.666 32.2389 30.2259 34.3715 30.2259H38.1231V32.5756C38.1231 36.663 34.7861 40 30.6988 40H8.0308C3.94346 40 0.606445 36.663 0.606445 32.5756V19.2868C0.606445 15.1995 3.94346 11.8625 8.0308 11.8625H30.6988C34.7861 11.8625 38.1231 15.1995 38.1231 19.2868V22.1302H34.1345C33.0288 22.1302 32.0217 22.5646 31.2911 23.3149Z" fill="#06E7ED"/>
<path d="M24.3858 3.75326V11.2566H7.42435C3.33701 11.2566 0 14.5936 0 18.6809V11.4343C0 9.08462 1.44143 6.99149 3.63319 6.16217L19.3112 0.238483C21.7597 -0.669816 24.3858 1.12709 24.3858 3.75326Z" fill="white"/>
<path d="M40.2171 24.1446V28.2122C40.2171 29.2982 39.3483 30.1868 38.2426 30.2263H34.3724C32.2399 30.2263 30.2851 28.6664 30.1074 26.5338C29.9889 25.2899 30.4628 24.1249 31.2921 23.3153C32.0227 22.565 33.0297 22.1306 34.1355 22.1306H38.2426C39.3483 22.17 40.2171 23.0586 40.2171 24.1446Z" fill="white"/>
<path d="M23.3136 21.7352H9.49166C8.68209 21.7352 8.01074 21.0639 8.01074 20.2543C8.01074 19.4447 8.68209 18.7734 9.49166 18.7734H23.3136C24.1232 18.7734 24.7945 19.4447 24.7945 20.2543C24.7945 21.0639 24.1232 21.7352 23.3136 21.7352Z" fill="white"/>
</svg>
