<svg width="41" height="40" viewBox="0 0 41 40" fill="none" xmlns="http://www.w3.org/2000/svg">
<path d="M6.56348 7.29312L19.032 17.3773M19.032 17.3773L16.5495 35.9958M19.032 17.3773L35.3713 7.29312" stroke="white" stroke-width="2"/>
<path d="M35.736 11.669C38.5555 11.669 40.8412 9.38333 40.8412 6.5638C40.8412 3.74429 38.5555 1.45862 35.736 1.45862C32.9165 1.45862 30.6309 3.74429 30.6309 6.5638C30.6309 9.38333 32.9165 11.669 35.736 11.669Z" fill="#06E7ED"/>
<path d="M5.10519 10.2104C7.9247 10.2104 10.2104 7.92471 10.2104 5.10518C10.2104 2.28567 7.9247 0 5.10519 0C2.28568 0 0 2.28567 0 5.10518C0 7.92471 2.28568 10.2104 5.10519 10.2104Z" fill="#06E7ED"/>
<path d="M18.7096 22.5245C21.7304 22.5245 24.1794 20.0757 24.1794 17.0547C24.1794 14.0337 21.7304 11.5848 18.7096 11.5848C15.6886 11.5848 13.2397 14.0337 13.2397 17.0547C13.2397 20.0757 15.6886 22.5245 18.7096 22.5245Z" fill="#06E7ED"/>
<path d="M16.6902 40C19.5097 40 21.7953 37.7144 21.7953 34.8948C21.7953 32.0752 19.5097 29.7896 16.6902 29.7896C13.8706 29.7896 11.585 32.0752 11.585 34.8948C11.585 37.7144 13.8706 40 16.6902 40Z" fill="#06E7ED"/>
</svg>
