<svg width="49" height="25" viewBox="0 0 49 25" fill="none" xmlns="http://www.w3.org/2000/svg">
<path d="M17.9585 17.8078V16.3678C17.9585 15.6744 17.8219 14.9878 17.5566 14.3472C17.2912 13.7066 16.9023 13.1245 16.412 12.6343C15.9217 12.144 15.3397 11.755 14.6991 11.4897C14.0585 11.2244 13.3719 11.0878 12.6785 11.0878H6.91849V12.0478H12.6785C13.2458 12.0478 13.8076 12.1595 14.3317 12.3766C14.8558 12.5937 15.332 12.9119 15.7332 13.3131C16.1343 13.7142 16.4525 14.1905 16.6696 14.7146C16.8867 15.2387 16.9985 15.8005 16.9985 16.3678V17.8078H17.9585Z" fill="#8B94AC"/>
<path d="M10.6183 8.06762L9.93865 7.38794L5.75977 11.5678L9.93865 15.7476L10.6183 15.0679L7.11721 11.5678L10.6183 8.06762Z" fill="#8B94AC"/>
<g opacity="0.5">
<path d="M31.7198 17.8078V16.3678C31.7198 15.222 32.1749 14.1232 32.9851 13.3131C33.7952 12.5029 34.894 12.0478 36.0398 12.0478H41.7998V11.0878H36.0398C34.6394 11.0878 33.2964 11.6441 32.3062 12.6343C31.316 13.6244 30.7598 14.9674 30.7598 16.3678V17.8078H31.7198Z" fill="#8B94AC"/>
<path d="M38.0999 15.0679L38.7796 15.7476L42.9585 11.5678L38.7796 7.38794L38.0999 8.06762L41.601 11.5678L38.0999 15.0679Z" fill="#8B94AC"/>
</g>
</svg>
