<svg width="1770" height="564" viewBox="0 0 1770 564" fill="none" xmlns="http://www.w3.org/2000/svg">
<g opacity="0.3" clip-path="url(#clip0_118_2573)">
<path d="M0.277832 93.9593C229.662 -35.6167 507.468 -29.7491 777.699 105.172C1094.64 263.386 1409.83 440.369 1743.76 275.455" stroke="#06E7ED" stroke-width="0.5" stroke-miterlimit="10" stroke-linecap="round"/>
<path d="M3.50928 117.452C224.586 -15.6358 506.912 -14.4245 778.854 118.219C1094.6 272.832 1413.64 445.737 1745.08 276.488" stroke="#06DDE7" stroke-width="0.5" stroke-miterlimit="10" stroke-linecap="round"/>
<path d="M6.75244 140.933C219.511 4.33407 506.368 0.911285 779.965 131.265C1094.51 282.289 1417.45 451.093 1746.39 277.533" stroke="#06D4E1" stroke-width="0.5" stroke-miterlimit="10" stroke-linecap="round"/>
<path d="M9.99561 164.426C214.424 24.3149 506.079 15.6469 781.064 144.323C1094.73 291.079 1421.17 456.461 1747.69 278.566" stroke="#06CADC" stroke-width="0.5" stroke-miterlimit="10" stroke-linecap="round"/>
<path d="M13.2271 187.918C209.348 44.2958 505.59 30.816 782.175 157.369C1094.72 300.37 1424.94 461.862 1748.99 279.611" stroke="#07C1D6" stroke-width="0.5" stroke-miterlimit="10" stroke-linecap="round"/>
<path d="M16.5034 211.4C204.273 64.2768 505.091 46.0517 783.285 170.416C1094.69 309.682 1428.7 467.185 1750.28 280.655" stroke="#07B7D0" stroke-width="0.5" stroke-miterlimit="10" stroke-linecap="round"/>
<path d="M19.7134 234.893C199.198 84.2466 504.58 61.2207 784.396 183.473C1094.64 319.017 1432.52 472.552 1751.58 281.644" stroke="#07AECA" stroke-width="0.5" stroke-miterlimit="10" stroke-linecap="round"/>
<path d="M22.9448 258.374C194.111 104.228 504.058 76.4565 785.506 196.52C1094.59 328.374 1436.23 477.909 1752.84 282.733" stroke="#07A4C4" stroke-width="0.5" stroke-miterlimit="10" stroke-linecap="round"/>
<path d="M26.188 281.867C189.036 124.208 503.525 91.7144 786.617 209.577C1094.51 337.764 1440 483.276 1754.16 283.778" stroke="#079BBF" stroke-width="0.5" stroke-miterlimit="10" stroke-linecap="round"/>
<path d="M29.4312 305.359C183.96 144.189 502.947 106.984 787.728 222.624C1094.43 347.177 1443.76 488.633 1755.46 284.856" stroke="#0791B9" stroke-width="0.5" stroke-miterlimit="10" stroke-linecap="round"/>
<path d="M32.6626 328.841C178.884 164.159 502.447 122.286 788.827 235.67C1094.33 356.612 1447.53 494 1756.76 285.856" stroke="#0788B3" stroke-width="0.5" stroke-miterlimit="10" stroke-linecap="round"/>
<path d="M35.9058 352.333C173.798 184.14 501.837 137.611 789.938 248.728C1094.24 366.08 1451.29 499.368 1758.05 286.901" stroke="#087EAD" stroke-width="0.5" stroke-miterlimit="10" stroke-linecap="round"/>
<path d="M39.1489 375.815C168.723 204.121 501.282 152.969 791.027 261.775C1094.09 375.57 1455.02 504.724 1759.33 287.934" stroke="#0874A7" stroke-width="0.5" stroke-miterlimit="10" stroke-linecap="round"/>
<path d="M42.3916 399.307C163.647 224.102 500.726 168.349 792.159 274.821C1093.99 385.094 1458.81 510.091 1760.6 288.979" stroke="#086BA2" stroke-width="0.5" stroke-miterlimit="10" stroke-linecap="round"/>
<path d="M45.6235 422.778C158.572 244.061 500.104 183.74 793.27 287.868C1093.85 394.629 1462.57 515.437 1761.94 290.012" stroke="#08619C" stroke-width="0.5" stroke-miterlimit="10" stroke-linecap="round"/>
<path d="M48.8667 446.282C153.497 264.031 499.505 199.187 794.381 300.925C1093.72 404.208 1466.29 520.815 1763.24 291.057" stroke="#085896" stroke-width="0.5" stroke-miterlimit="10" stroke-linecap="round"/>
<path d="M52.1094 469.774C148.41 284.034 498.894 214.645 795.48 313.972C1093.58 413.81 1470.1 526.227 1764.54 292.102" stroke="#084E90" stroke-width="0.5" stroke-miterlimit="10" stroke-linecap="round"/>
<path d="M55.3745 493.256C143.334 304.003 498.283 230.136 796.59 327.029C1093.42 423.433 1473.87 531.506 1765.82 293.146" stroke="#09458A" stroke-width="0.5" stroke-miterlimit="10" stroke-linecap="round"/>
<path d="M58.5845 516.748C138.259 323.984 497.517 246.139 797.701 340.054C1093.12 433.546 1477.63 536.885 1767.12 294.157" stroke="#093B85" stroke-width="0.5" stroke-miterlimit="10" stroke-linecap="round"/>
<path d="M61.8271 540.23C133.183 343.965 496.961 261.463 798.812 353.133C1093.03 443.014 1481.4 542.274 1768.42 295.224" stroke="#09327F" stroke-width="0.5" stroke-miterlimit="10" stroke-linecap="round"/>
<path d="M65.0591 563.722C128.097 363.946 496.406 276.788 799.922 366.18C1092.94 452.471 1485.16 547.631 1769.71 296.269" stroke="#092879" stroke-width="0.5" stroke-miterlimit="10" stroke-linecap="round"/>
<g clip-path="url(#clip1_118_2573)">
<path d="M1896.5 205.4C1708.73 58.2769 1407.91 40.0518 1129.71 164.416C818.312 303.682 484.299 461.185 162.724 274.655" stroke="#06E7ED" stroke-width="2" stroke-miterlimit="10" stroke-linecap="round"/>
<path d="M1896.5 205.4C1708.73 58.2769 1407.91 40.0518 1129.71 164.416C818.312 303.682 484.299 461.185 162.724 274.655" stroke="#06E7ED" stroke-width="2" stroke-miterlimit="10" stroke-linecap="round"/>
</g>
</g>
<defs>
<clipPath id="clip0_118_2573">
<rect width="1770" height="564" fill="white"/>
</clipPath>
<clipPath id="clip1_118_2573">
<rect width="1733" height="300" fill="white" transform="matrix(-1 0 0 1 1896 71)"/>
</clipPath>
</defs>
</svg>
