<svg width="593" height="326" viewBox="0 0 593 326" fill="none" xmlns="http://www.w3.org/2000/svg">
<path d="M23.628 276.355H0.711914V324.467C0.711914 325.019 1.15963 325.467 1.71191 325.467H591.812C592.364 325.467 592.812 325.019 592.812 324.467V14.9399L567.021 55.4006C566.544 56.1495 565.4 55.9509 565.203 55.0849L553.275 2.64733C553.171 2.19214 552.767 1.86914 552.3 1.86914H519.281C518.977 1.86914 518.689 2.00763 518.499 2.24542L495.864 30.6119C495.557 30.9959 495.017 31.1004 494.59 30.8586L467.598 15.5898C467.021 15.2635 466.292 15.5782 466.134 16.2217L445.341 100.912C445.131 101.765 444.004 101.953 443.529 101.216L420.548 65.5595C420.111 64.8814 419.093 64.9732 418.784 65.7184L414.642 75.7154C414.377 76.3542 413.56 76.5381 413.047 76.0741L400.667 64.8693C400.167 64.4162 399.37 64.5792 399.088 65.1925L381.969 102.377C381.761 102.83 381.25 103.06 380.772 102.916L360.96 96.9391C360.409 96.7727 359.831 97.1055 359.699 97.6661L338.388 187.674C338.32 187.962 338.129 188.204 337.865 188.337L306.721 203.997C306.213 204.253 305.593 204.032 305.36 203.513L283.269 154.297C282.91 153.497 281.769 153.514 281.433 154.324L271.641 177.959C271.543 178.194 271.361 178.383 271.129 178.488L250.254 187.934C249.984 188.057 249.781 188.293 249.702 188.579L237.332 233.365C237.244 233.684 237.003 233.939 236.689 234.046L208.652 243.562C208.43 243.637 208.241 243.788 208.119 243.989L189.24 275.056C188.867 275.671 187.987 275.702 187.571 275.116L172.825 254.355C172.489 253.883 171.824 253.794 171.376 254.161L127.728 289.948C127.351 290.257 126.805 290.249 126.438 289.929L111.498 276.938C111.116 276.605 110.546 276.611 110.17 276.951L96.6723 289.168C96.4884 289.334 96.2493 289.426 96.0013 289.426H67.983C67.6799 289.426 67.3933 289.289 67.2035 289.053L39.4981 254.573C39.0682 254.038 38.2394 254.086 37.873 254.666L24.4736 275.889C24.2904 276.179 23.9712 276.355 23.628 276.355Z" fill="url(#paint0_linear_154_6824)" fill-opacity="0.48"/>
<path d="M4.23633 276.355H23.0769C23.7633 276.355 24.4017 276.003 24.7681 275.423L37.1254 255.85C37.8583 254.69 39.5158 254.595 40.3756 255.665L66.9034 288.679C67.283 289.151 67.8564 289.426 68.4625 289.426H95.6161C96.1121 289.426 96.5904 289.242 96.9582 288.909L109.159 277.866C110.047 277.062 111.438 277.214 112.132 278.191L125.695 297.286C126.415 298.3 127.876 298.418 128.749 297.532L170.53 255.178C171.404 254.293 172.865 254.411 173.585 255.425L186.69 273.876C187.523 275.049 189.284 274.986 190.03 273.757L207.93 244.3C208.174 243.898 208.552 243.596 208.997 243.445L236.188 234.216C236.815 234.003 237.297 233.493 237.473 232.854L249.578 189.031C249.736 188.459 250.14 187.986 250.681 187.741L270.769 178.651C271.232 178.441 271.598 178.063 271.792 177.594L280.546 156.465C281.218 154.845 283.501 154.812 284.219 156.412L304.932 202.559C305.399 203.599 306.638 204.039 307.655 203.527L337.448 188.546C337.976 188.281 338.36 187.796 338.496 187.22L359.454 98.7C359.719 97.5788 360.875 96.9132 361.978 97.246L379.939 102.665C380.895 102.953 381.916 102.493 382.334 101.586L398.518 66.4298C399.083 65.2031 400.676 64.8771 401.677 65.7833L411.995 75.122C413.021 76.05 414.656 75.6823 415.185 74.4048L418.054 67.4815C418.671 65.9911 420.708 65.8076 421.582 67.1636L442.271 99.2639C443.222 100.739 445.476 100.362 445.895 98.6573L465.82 17.5035C466.136 16.2165 467.593 15.5871 468.747 16.2396L493.848 30.4387C494.703 30.9225 495.783 30.7134 496.396 29.9454L518.199 2.6217C518.579 2.14611 519.154 1.86914 519.762 1.86914H551.502C552.436 1.86914 553.245 2.51513 553.452 3.42553L564.573 52.3158C564.981 54.1059 567.382 54.4475 568.273 52.842L589.288 14.9399" stroke="#2B5BDA" stroke-width="2" stroke-linecap="round"/>
<defs>
<linearGradient id="paint0_linear_154_6824" x1="296.762" y1="1.86914" x2="296.762" y2="325.467" gradientUnits="userSpaceOnUse">
<stop stop-color="#092879"/>
<stop offset="1" stop-color="#092879" stop-opacity="0"/>
</linearGradient>
</defs>
</svg>
