<svg width="16" height="16" viewBox="0 0 16 16" fill="none" xmlns="http://www.w3.org/2000/svg">
<path fill-rule="evenodd" clip-rule="evenodd" d="M15.9321 8.0393C15.9321 12.4356 12.3683 15.9995 7.97192 15.9995C3.57558 15.9995 0.0117188 12.4356 0.0117188 8.0393C0.0117188 3.64296 3.57558 0.0791016 7.97192 0.0791016C12.3683 0.0791016 15.9321 3.64296 15.9321 8.0393Z" fill="#FFC246"/>
<path fill-rule="evenodd" clip-rule="evenodd" d="M11.5351 6.95182C11.6997 5.83378 10.8569 5.22944 9.69983 4.82654L10.0739 3.31569L9.14127 3.07898L8.77222 4.55963L8.0441 4.38336L8.40816 2.89768L7.49551 2.66602L7.12148 4.17687L5.27623 3.72362L5.05181 4.71071C5.05181 4.71071 5.73006 4.86683 5.7151 4.87691C5.9728 4.91571 6.15749 5.1483 6.13901 5.41074L5.14158 9.57064C5.11518 9.65617 5.0562 9.72758 4.97761 9.76915C4.89903 9.81072 4.80731 9.81902 4.72266 9.79224L4.00949 9.621L3.55566 10.6786L4.74759 10.9808L5.40091 11.152L5.02189 12.6629L5.93453 12.8895L6.30857 11.3786L7.04667 11.5902L6.67263 13.101L7.59027 13.3327L7.96929 11.7966C9.53027 12.0988 10.7023 11.9779 11.196 10.5527C11.595 9.40445 11.196 8.73967 10.3581 8.31159C11.0105 8.18039 11.4936 7.6222 11.5351 6.95182ZM9.44549 9.9131C9.16122 11.0614 7.24616 10.4167 6.62775 10.2858L7.12646 8.2713C7.72991 8.40728 9.71978 8.70945 9.42554 9.9131H9.44549ZM9.72477 6.93671C9.47042 7.9792 7.87454 7.44033 7.36086 7.31946L7.79474 5.47621C8.31341 5.60715 9.97413 5.84889 9.70482 6.93671H9.72477Z" fill="white"/>
</svg>
