<svg width="33" height="33" viewBox="0 0 33 33" fill="none" xmlns="http://www.w3.org/2000/svg">
<path fill-rule="evenodd" clip-rule="evenodd" d="M32.5713 16.7471C32.5713 25.5397 25.4435 32.6675 16.6509 32.6675C7.85819 32.6675 0.730469 25.5397 0.730469 16.7471C0.730469 7.95438 7.85819 0.82666 16.6509 0.82666C25.4435 0.82666 32.5713 7.95438 32.5713 16.7471" fill="#FFC246"/>
<path fill-rule="evenodd" clip-rule="evenodd" d="M23.7772 14.5731C24.1064 12.337 22.4207 11.1283 20.1067 10.3225L20.8548 7.3008L18.9896 6.8274L18.2515 9.78869L16.7952 9.43615L17.5234 6.46479L15.6981 6.00146L14.95 9.02318L11.2595 8.11667L10.8106 10.0909C10.8106 10.0909 12.1672 10.4031 12.1372 10.4232C12.6526 10.5009 13.022 10.966 12.985 11.4909L10.9902 19.8107C10.9374 19.9818 10.8194 20.1246 10.6623 20.2077C10.5051 20.2909 10.3216 20.3075 10.1523 20.2539L8.72602 19.9114L7.81836 22.0266L10.2022 22.631L11.5089 22.9735L10.7508 25.9952L12.5761 26.4484L13.3242 23.4267L14.8004 23.8497L14.0523 26.8715L15.8876 27.3348L16.6456 24.2627C19.7676 24.8671 22.1115 24.6253 23.099 21.7748C23.8969 19.4783 23.099 18.1488 21.4233 17.2926C22.728 17.0302 23.6943 15.9138 23.7772 14.5731ZM19.598 20.4956C19.0295 22.7921 15.1993 21.5029 13.9625 21.241L14.96 17.212C16.1668 17.484 20.1466 18.0883 19.5581 20.4956H19.598ZM20.1566 14.5429C19.6479 16.6278 16.4561 15.5501 15.4288 15.3084L16.2965 11.6219C17.3338 11.8837 20.6553 12.3672 20.1167 14.5429H20.1566Z" fill="white"/>
</svg>
