<svg width="1770" height="564" viewBox="0 0 1770 564" fill="none" xmlns="http://www.w3.org/2000/svg">
<g clip-path="url(#clip0_104_1525)">
<g filter="url(#filter0_f_104_1525)">
<path d="M1753.5 211.4C1565.73 64.2769 1264.91 46.0518 986.714 170.416C675.312 309.682 341.299 467.185 19.7238 280.655" stroke="#06E7ED" stroke-width="2" stroke-miterlimit="10" stroke-linecap="round"/>
<path d="M1753.5 211.4C1565.73 64.2769 1264.91 46.0518 986.714 170.416C675.312 309.682 341.299 467.185 19.7238 280.655" stroke="#06E7ED" stroke-width="2" stroke-miterlimit="10" stroke-linecap="round"/>
<path d="M1753.5 211.4C1565.73 64.2769 1264.91 46.0518 986.714 170.416C675.312 309.682 341.299 467.185 19.7238 280.655" stroke="#06E7ED" stroke-width="2" stroke-miterlimit="10" stroke-linecap="round"/>
</g>
<path d="M1753.5 211.4C1565.73 64.2769 1264.91 46.0518 986.714 170.416C675.312 309.682 341.299 467.185 19.7238 280.655" stroke="#06E7ED" stroke-width="2" stroke-miterlimit="10" stroke-linecap="round"/>
<path d="M1753.5 211.4C1565.73 64.2769 1264.91 46.0518 986.714 170.416C675.312 309.682 341.299 467.185 19.7238 280.655" stroke="#06E7ED" stroke-width="2" stroke-miterlimit="10" stroke-linecap="round"/>
<path d="M1753.5 211.4C1565.73 64.2769 1264.91 46.0518 986.714 170.416C675.312 309.682 341.299 467.185 19.7238 280.655" stroke="#06E7ED" stroke-width="2" stroke-miterlimit="10" stroke-linecap="round"/>
</g>
<defs>
<filter id="filter0_f_104_1525" x="-1.27637" y="66.8923" width="1775.77" height="320.055" filterUnits="userSpaceOnUse" color-interpolation-filters="sRGB">
<feFlood flood-opacity="0" result="BackgroundImageFix"/>
<feBlend mode="normal" in="SourceGraphic" in2="BackgroundImageFix" result="shape"/>
<feGaussianBlur stdDeviation="10" result="effect1_foregroundBlur_104_1525"/>
</filter>
<clipPath id="clip0_104_1525">
<rect width="4" height="300" fill="white" transform="matrix(-1 0 0 1 24 77)"/>
</clipPath>
</defs>
</svg>
