<svg width="20" height="20" viewBox="0 0 20 20" fill="none" xmlns="http://www.w3.org/2000/svg">
<path fill-rule="evenodd" clip-rule="evenodd" d="M10 3C10.2652 3 10.5196 3.10536 10.7071 3.29289L13.7071 6.29289C14.0977 6.68342 14.0977 7.31658 13.7071 7.70711C13.3166 8.09763 12.6834 8.09763 12.2929 7.70711L10 5.41421L7.70714 7.70711C7.31661 8.09763 6.68345 8.09763 6.29292 7.70711C5.9024 7.31658 5.9024 6.68342 6.29292 6.29289L9.29292 3.29289C9.48046 3.10536 9.73481 3 10 3ZM6.29292 12.2929C6.68345 11.9024 7.31661 11.9024 7.70714 12.2929L10 14.5858L12.2929 12.2929C12.6834 11.9024 13.3166 11.9024 13.7071 12.2929C14.0977 12.6834 14.0977 13.3166 13.7071 13.7071L10.7071 16.7071C10.3166 17.0976 9.68345 17.0976 9.29292 16.7071L6.29292 13.7071C5.9024 13.3166 5.9024 12.6834 6.29292 12.2929Z" fill="#9CA3AF"/>
</svg>
