<svg width="20" height="21" viewBox="0 0 20 21" fill="none" xmlns="http://www.w3.org/2000/svg">
<path fill-rule="evenodd" clip-rule="evenodd" d="M10 3.40405C10.2652 3.40405 10.5196 3.50941 10.7071 3.69695L13.7071 6.69695C14.0976 7.08747 14.0976 7.72064 13.7071 8.11116C13.3166 8.50168 12.6834 8.50168 12.2929 8.11116L10 5.81827L7.70711 8.11116C7.31658 8.50168 6.68342 8.50168 6.29289 8.11116C5.90237 7.72064 5.90237 7.08747 6.29289 6.69695L9.29289 3.69695C9.48043 3.50941 9.73478 3.40405 10 3.40405ZM6.29289 12.6969C6.68342 12.3064 7.31658 12.3064 7.70711 12.6969L10 14.9898L12.2929 12.6969C12.6834 12.3064 13.3166 12.3064 13.7071 12.6969C14.0976 13.0875 14.0976 13.7206 13.7071 14.1112L10.7071 17.1112C10.3166 17.5017 9.68342 17.5017 9.29289 17.1112L6.29289 14.1112C5.90237 13.7206 5.90237 13.0875 6.29289 12.6969Z" fill="#9CA3AF"/>
</svg>
