<svg width="24" height="25" viewBox="0 0 24 25" fill="none" xmlns="http://www.w3.org/2000/svg">
<path d="M14.3998 9.30789V15.0679H17.2798V9.30789H14.3998ZM13.9198 8.34789H17.7598C17.8871 8.34789 18.0092 8.39846 18.0992 8.48848C18.1892 8.5785 18.2398 8.70059 18.2398 8.82789V15.5479C18.2398 15.6752 18.1892 15.7973 18.0992 15.8873C18.0092 15.9773 17.8871 16.0279 17.7598 16.0279H13.9198C13.7925 16.0279 13.6704 15.9773 13.5804 15.8873C13.4903 15.7973 13.4398 15.6752 13.4398 15.5479V8.82789C13.4398 8.70059 13.4903 8.5785 13.5804 8.48848C13.6704 8.39846 13.7925 8.34789 13.9198 8.34789Z" fill="#8B94AC"/>
<path d="M15.3598 5.46789H16.3198V8.82789H15.3598V5.46789ZM15.3598 15.5479H16.3198V18.9079H15.3598V15.5479Z" fill="#8B94AC"/>
<path d="M6.71977 6.42789V17.9479H9.59977V6.42789H6.71977ZM6.23977 5.46789H10.0798C10.2071 5.46789 10.3292 5.51846 10.4192 5.60848C10.5092 5.6985 10.5598 5.82059 10.5598 5.94789V18.4279C10.5598 18.5552 10.5092 18.6773 10.4192 18.7673C10.3292 18.8573 10.2071 18.9079 10.0798 18.9079H6.23977C6.11246 18.9079 5.99037 18.8573 5.90035 18.7673C5.81034 18.6773 5.75977 18.5552 5.75977 18.4279V5.94789C5.75977 5.82059 5.81034 5.6985 5.90035 5.60848C5.99037 5.51846 6.11246 5.46789 6.23977 5.46789Z" fill="#8B94AC"/>
<path d="M7.67977 2.58789H8.63977V5.94789H7.67977V2.58789ZM7.67977 18.4279H8.63977V21.7879H7.67977V18.4279Z" fill="#8B94AC"/>
</svg>
