<svg width="24" height="25" viewBox="0 0 24 25" fill="none" xmlns="http://www.w3.org/2000/svg">
<path d="M20.0398 5.58806V9.90806H21.1198V4.50806H15.7198V5.58806H20.0398Z" fill="#8B94AC"/>
<path d="M15.5622 10.8304L20.9622 5.43038L20.1975 4.66574L14.7975 10.0657L15.5622 10.8304ZM4.91984 5.58806V9.90806H3.83984V4.50806H9.23984V5.58806H4.91984Z" fill="#8B94AC"/>
<path d="M9.39752 10.8304L3.99752 5.43038L4.76216 4.66574L10.1622 10.0657L9.39752 10.8304ZM20.0398 20.7081V16.3881H21.1198V21.7881H15.7198V20.7081H20.0398Z" fill="#8B94AC"/>
<path d="M15.5622 15.4657L20.9622 20.8657L20.1975 21.6304L14.7975 16.2304L15.5622 15.4657Z" fill="#8B94AC"/>
<path d="M4.91984 20.7081V16.3881H3.83984V21.7881H9.23984V20.7081H4.91984Z" fill="#8B94AC"/>
<path d="M9.39752 15.4657L3.99752 20.8657L4.76216 21.6304L10.1622 16.2304L9.39752 15.4657Z" fill="#8B94AC"/>
</svg>
