<svg width="24" height="25" viewBox="0 0 24 25" fill="none" xmlns="http://www.w3.org/2000/svg">
<path d="M16.5817 17.2014L16.1542 16.9421L16.0817 17.0616V17.2014H16.5817ZM22.0799 17.2014H22.5799V17.0616L22.5075 16.9421L22.0799 17.2014ZM19.3308 12.6681L19.7584 12.4088C19.6677 12.2593 19.5056 12.1681 19.3308 12.1681V12.6681ZM1.91992 17.2014L1.49239 16.9421L1.41992 17.0616V17.2014H1.91992ZM7.4181 17.2014H7.9181V17.0616L7.84564 16.9421L7.4181 17.2014ZM4.66901 12.6681V12.1681C4.49422 12.1681 4.33212 12.2593 4.24148 12.4088L4.66901 12.6681ZM16.0817 17.2014C16.0817 17.925 16.0727 18.9537 16.4743 19.7937C16.6835 20.2314 17.006 20.6261 17.492 20.9059C17.9732 21.183 18.5804 21.3281 19.3308 21.3281V20.3281C18.7067 20.3281 18.283 20.2075 17.991 20.0394C17.7038 19.874 17.5109 19.6436 17.3765 19.3625C17.0908 18.7648 17.0817 17.9801 17.0817 17.2014H16.0817ZM19.3308 21.3281C20.0812 21.3281 20.6885 21.183 21.1697 20.9059C21.6557 20.6261 21.9782 20.2314 22.1874 19.7937C22.589 18.9537 22.5799 17.925 22.5799 17.2014H21.5799C21.5799 17.9801 21.5709 18.7648 21.2852 19.3625C21.1508 19.6436 20.9578 19.874 20.6706 20.0394C20.3786 20.2075 19.955 20.3281 19.3308 20.3281V21.3281ZM18.9033 12.4088L16.1542 16.9421L17.0093 17.4607L19.7584 12.9273L18.9033 12.4088ZM16.5817 17.7014H22.0799V16.7014H16.5817V17.7014ZM22.5075 16.9421L19.7584 12.4088L18.9033 12.9273L21.6524 17.4607L22.5075 16.9421ZM1.41992 17.2014C1.41992 17.925 1.41087 18.9537 1.81245 19.7937C2.02167 20.2314 2.34419 20.6261 2.83017 20.9059C3.31135 21.183 3.9186 21.3281 4.66901 21.3281V20.3281C4.04488 20.3281 3.62122 20.2075 3.32922 20.0394C3.04202 19.874 2.84908 19.6436 2.71467 19.3625C2.42898 18.7648 2.41992 17.9801 2.41992 17.2014H1.41992ZM4.66901 21.3281C5.41943 21.3281 6.02667 21.183 6.50785 20.9059C6.99384 20.6261 7.31635 20.2314 7.52558 19.7937C7.92716 18.9537 7.9181 17.925 7.9181 17.2014H6.9181C6.9181 17.9801 6.90905 18.7648 6.62336 19.3625C6.48895 19.6436 6.29601 19.874 6.00881 20.0394C5.71681 20.2075 5.29314 20.3281 4.66901 20.3281V21.3281ZM4.24148 12.4088L1.49239 16.9421L2.34745 17.4607L5.09654 12.9273L4.24148 12.4088ZM1.91992 17.7014H7.4181V16.7014H1.91992V17.7014ZM7.84564 16.9421L5.09654 12.4088L4.24148 12.9273L6.99057 17.4607L7.84564 16.9421ZM4.66901 13.1681H10.1672V12.1681H4.66901V13.1681ZM19.3308 12.1681H13.8326V13.1681H19.3308V12.1681ZM13.3326 12.6681C13.3326 13.3884 12.741 13.9814 11.9999 13.9814V14.9814C13.2832 14.9814 14.3326 13.9507 14.3326 12.6681H13.3326ZM11.9999 13.9814C11.2588 13.9814 10.6672 13.3884 10.6672 12.6681H9.66719C9.66719 13.9507 10.7166 14.9814 11.9999 14.9814V13.9814ZM10.6672 12.6681C10.6672 11.9477 11.2588 11.3547 11.9999 11.3547V10.3547C10.7166 10.3547 9.66719 11.3854 9.66719 12.6681H10.6672ZM11.9999 11.3547C12.741 11.3547 13.3326 11.9477 13.3326 12.6681H14.3326C14.3326 11.3854 13.2832 10.3547 11.9999 10.3547V11.3547ZM11.4999 8.13472V10.8547H12.4999V8.13472H11.4999ZM11.9999 5.00806C12.2349 5.00806 12.4163 5.19513 12.4163 5.41472H13.4163C13.4163 4.63284 12.7771 4.00806 11.9999 4.00806V5.00806ZM12.4163 5.41472V7.22806H13.4163V5.41472H12.4163ZM12.4163 7.22806C12.4163 7.44765 12.2349 7.63472 11.9999 7.63472V8.63472C12.7771 8.63472 13.4163 8.00994 13.4163 7.22806H12.4163ZM11.9999 7.63472C11.7649 7.63472 11.5836 7.44765 11.5836 7.22806H10.5836C10.5836 8.00994 11.2227 8.63472 11.9999 8.63472V7.63472ZM11.5836 7.22806V5.41472H10.5836V7.22806H11.5836ZM11.5836 5.41472C11.5836 5.19513 11.7649 5.00806 11.9999 5.00806V4.00806C11.2227 4.00806 10.5836 4.63284 10.5836 5.41472H11.5836Z" fill="#8B94AC"/>
</svg>
