<svg width="24" height="25" viewBox="0 0 24 25" fill="none" xmlns="http://www.w3.org/2000/svg">
<g clip-path="url(#clip0_301_92163)">
<path fill-rule="evenodd" clip-rule="evenodd" d="M14.7102 5.71836C14.2821 5.65647 13.8517 5.63558 13.4246 5.65456C13.395 5.65588 13.3653 5.65739 13.3357 5.65909C13.1714 5.66853 13.0077 5.68387 12.8448 5.70504L12.7185 4.73339C12.9046 4.70919 13.0918 4.69166 13.2795 4.68087C13.8009 4.65092 14.3271 4.67297 14.8504 4.74861C15.3397 4.81933 15.8182 4.93571 16.2802 5.09473C16.3122 5.10577 16.3443 5.11702 16.3762 5.12847C16.5532 5.19198 16.7277 5.26179 16.8994 5.33771L16.5031 6.23382C16.3528 6.16739 16.2002 6.10631 16.0453 6.05074C15.6152 5.89641 15.1681 5.78454 14.7102 5.71836ZM11.883 5.90091C11.7248 5.94511 11.5681 5.99503 11.4132 6.05059C10.9831 6.20487 10.5669 6.40269 10.1713 6.64266C9.80148 6.86705 9.45597 7.1245 9.13836 7.41063C9.1163 7.4305 9.09438 7.45051 9.07259 7.47065C8.95177 7.58237 8.83513 7.69829 8.72285 7.81818L8.00768 7.14841C8.13599 7.0114 8.2693 6.87891 8.40738 6.75123C8.79083 6.39667 9.21106 6.0792 9.66309 5.80495C10.0858 5.54851 10.5291 5.33419 10.9868 5.16327C11.0186 5.1514 11.0505 5.13974 11.0824 5.12829C11.2594 5.0648 11.4385 5.00775 11.6193 4.95723L11.883 5.90091ZM18.8016 7.89011C18.4936 7.55166 18.1545 7.24705 17.7902 6.9794L17.7782 6.97061C17.6454 6.87346 17.5093 6.78122 17.3701 6.69403L17.8902 5.86365C18.0493 5.9633 18.2049 6.06872 18.3567 6.17974C18.7782 6.48806 19.1704 6.83958 19.5263 7.23061C19.859 7.59624 20.1544 7.99025 20.41 8.40667C20.4277 8.43558 20.4453 8.46461 20.4626 8.49374C20.5589 8.65529 20.6492 8.82011 20.7335 8.98784L19.8579 9.42768C19.7842 9.28091 19.7052 9.1367 19.6209 8.99534C19.387 8.60279 19.113 8.23226 18.8016 7.89011ZM8.10487 8.58079C8.01086 8.71547 7.92162 8.85361 7.83737 8.99496C7.6034 9.38748 7.40785 9.80476 7.25506 10.2414L7.12992 10.5991L6.75228 10.5679C6.59116 10.5546 6.42975 10.5502 6.26879 10.5545L6.23471 10.5556C6.17293 10.5578 6.11123 10.5612 6.04964 10.566L5.97421 9.58907C6.04948 9.58326 6.1249 9.57903 6.2004 9.57638C6.28678 9.57335 6.37328 9.57241 6.45982 9.57354C6.59871 9.2293 6.76131 8.89678 6.94587 8.57811C6.96231 8.54972 6.97893 8.52145 6.99571 8.49328C7.092 8.33174 7.19398 8.17386 7.30143 8.01995L8.10487 8.58079ZM5.68307 10.6098C5.6221 10.6197 5.56132 10.6309 5.50077 10.6433C5.33194 10.678 5.16495 10.7227 5.00066 10.7772C4.84722 10.8281 4.697 10.8873 4.55064 10.9545C4.48411 10.985 4.41838 11.0171 4.35351 11.0509L3.90117 10.1817C3.96814 10.1469 4.03586 10.1134 4.10428 10.0814C4.29508 9.99207 4.49134 9.91383 4.69213 9.84722C4.87968 9.785 5.07012 9.73327 5.26258 9.69213C5.35006 9.67343 5.43796 9.65692 5.52619 9.64261L5.68307 10.6098ZM20.5794 12.1674C20.5581 11.7353 20.496 11.3089 20.3954 10.8934C20.3885 10.8646 20.3813 10.8358 20.3739 10.807L21.3232 10.5642L21.3232 10.5642C21.4242 10.959 21.4947 11.3628 21.5332 11.772C21.712 11.8339 21.8859 11.9071 22.0542 11.9908L22.0592 11.9934C22.1584 12.0429 22.2556 12.0961 22.3506 12.1528L21.8482 12.994C21.7743 12.9499 21.6987 12.9085 21.6215 12.87C21.4074 12.7631 21.1812 12.6782 20.9463 12.6175L20.5973 12.5274L20.5794 12.1674ZM4.03346 11.2349C3.98124 11.2679 3.9297 11.302 3.87888 11.3372C3.73718 11.4353 3.60106 11.5419 3.47129 11.6564C3.35008 11.7634 3.23509 11.8767 3.12676 11.9959C3.07752 12.05 3.02966 12.1054 2.98322 12.1619L2.22636 11.5396C2.27431 11.4813 2.3235 11.4239 2.37389 11.3677C2.5144 11.2107 2.66429 11.0618 2.82289 10.9218C2.9815 10.7818 3.14787 10.6516 3.32107 10.5316C3.38318 10.4886 3.44617 10.4469 3.50999 10.4066L4.03346 11.2349ZM2.7609 12.4566C2.7258 12.5074 2.69176 12.559 2.6588 12.6113C2.5669 12.7571 2.48344 12.9085 2.40896 13.0647C2.33638 13.217 2.27275 13.3729 2.21827 13.5318L2.21399 13.5444C2.19412 13.6029 2.17548 13.6618 2.15809 13.7211L1.21788 13.4453C1.23913 13.3728 1.26191 13.3008 1.2862 13.2293C1.35394 13.0298 1.43346 12.8341 1.52449 12.6431C1.60953 12.4647 1.70413 12.2915 1.80777 12.1242L1.82985 12.0889C1.87013 12.025 1.91174 11.9619 1.95464 11.8998L2.7609 12.4566ZM22.9274 14.0122C22.7999 13.8245 22.655 13.6512 22.4954 13.4941C22.4228 13.4227 22.3472 13.3546 22.2688 13.2901L22.8913 12.5334C22.9767 12.6037 23.0596 12.6773 23.1397 12.754C23.3619 12.9668 23.5628 13.2037 23.738 13.4617C23.9023 13.7036 24.041 13.9596 24.1532 14.2256C24.2038 14.3455 24.249 14.4674 24.2887 14.591L23.3558 14.8906C23.3294 14.8087 23.3 14.7277 23.2675 14.6478C23.1774 14.426 23.0637 14.2129 22.9274 14.0122ZM2.06911 14.0794C2.05674 14.1399 2.04564 14.2007 2.03582 14.2617C2.00844 14.4319 1.991 14.6039 1.98373 14.7768C1.97693 14.9383 1.97904 15.0998 1.98993 15.2604L1.99237 15.2945C1.99703 15.3561 2.00298 15.4176 2.01022 15.4789L1.03715 15.5938C1.0283 15.5188 1.02102 15.4436 1.01533 15.3683C0.99945 15.1582 0.995871 14.947 1.00476 14.7356C1.01307 14.5382 1.03221 14.3418 1.06197 14.1472L1.06843 14.1061C1.08043 14.0315 1.094 13.9572 1.10911 13.8832L2.06911 14.0794ZM23.4934 16.3679C23.5217 16.1428 23.5274 15.917 23.5113 15.6936C23.5102 15.6781 23.509 15.6626 23.5077 15.6472C23.5003 15.5613 23.4897 15.4757 23.4759 15.3908L24.4431 15.2339C24.4608 15.3431 24.4744 15.4531 24.4839 15.5635C24.5102 15.8701 24.5045 16.1806 24.4656 16.4901C24.4292 16.7795 24.3645 17.0626 24.2734 17.3358C24.2671 17.3547 24.2606 17.3736 24.2541 17.3924C24.2175 17.4971 24.1771 17.6002 24.133 17.7017L23.2347 17.3104C23.269 17.2315 23.3005 17.1512 23.3289 17.0698C23.4077 16.8438 23.4631 16.6086 23.4934 16.3679ZM2.0688 15.8434C2.08115 15.904 2.09477 15.9642 2.10966 16.0242C2.15118 16.1915 2.20256 16.3566 2.26366 16.5185C2.32072 16.6698 2.38595 16.8175 2.45895 16.961L2.47452 16.9914C2.50297 17.0462 2.53256 17.1005 2.56327 17.1541L1.71309 17.6412C1.67556 17.5757 1.6394 17.5094 1.60463 17.4423C1.50767 17.2553 1.42157 17.0623 1.3469 16.8644C1.27405 16.6713 1.21251 16.4746 1.16244 16.2753L1.15868 16.2603C1.14048 16.1869 1.12384 16.1133 1.10874 16.0393L2.0688 15.8434ZM2.76004 17.4665C2.79513 17.5173 2.83129 17.5674 2.86851 17.6168C2.97228 17.7544 3.08425 17.8861 3.20394 18.0111C3.32362 18.1362 3.45032 18.2538 3.58328 18.3635C3.63096 18.4028 3.67945 18.4411 3.72871 18.4784L3.13752 19.2598C3.07732 19.2142 3.01805 19.1674 2.95977 19.1193C2.79726 18.9852 2.64242 18.8415 2.49613 18.6887C2.34984 18.5359 2.21299 18.3749 2.08616 18.2067C2.04067 18.1464 1.99648 18.0851 1.9536 18.023L2.76004 17.4665ZM22.3621 18.5103C22.5438 18.3496 22.7067 18.1712 22.8489 17.9787C22.9001 17.9093 22.9487 17.8381 22.9945 17.7652L23.8242 18.2864C23.7654 18.3801 23.7029 18.4716 23.6371 18.5608C23.4543 18.8083 23.2448 19.0377 23.0112 19.2443C22.7927 19.4375 22.5571 19.6073 22.3083 19.7522C22.1952 19.818 22.0793 19.8787 21.9611 19.9341L21.5453 19.0469C21.6232 19.0104 21.6998 18.9709 21.7749 18.9285C21.9834 18.8109 22.1803 18.6711 22.3621 18.5103ZM4.03218 18.6886C4.08439 18.7216 4.1373 18.7535 4.19089 18.7844C4.3403 18.8703 4.49494 18.9476 4.65406 19.0157C4.81318 19.0838 4.97584 19.1423 5.14115 19.1911C5.20044 19.2086 5.26007 19.2248 5.32 19.2398L5.08243 20.1904C5.00918 20.1721 4.9363 20.1522 4.86384 20.1309C4.66179 20.0712 4.46299 19.9997 4.2685 19.9165C4.08684 19.8387 3.90997 19.7512 3.73861 19.6544L3.7024 19.6337C3.63691 19.5961 3.57224 19.5571 3.50843 19.5167L4.03218 18.6886ZM20.0982 19.3714C20.3249 19.3708 20.5495 19.3477 20.7689 19.3033C20.784 19.3003 20.7991 19.2971 20.8142 19.2938C20.8985 19.2756 20.982 19.2542 21.0645 19.2297L21.3431 20.1691C21.237 20.2006 21.1297 20.2281 21.0213 20.2515C20.7206 20.3166 20.4119 20.3504 20.1 20.3512L20.0987 19.8613V20.3512H18.0982H15.2404H14.666H13.7306V22.8006V23.2905H12.7508V22.8006V20.3512H11.8138H11.2394H8.3816H6.38111L6.38031 20.3512C6.18271 20.3509 5.98569 20.3397 5.7901 20.3178L5.7487 20.313C5.67368 20.304 5.59889 20.2935 5.52437 20.2814L5.68159 19.3142C5.74256 19.3242 5.80375 19.3328 5.86513 19.3401C6.03608 19.3606 6.20845 19.3711 6.38135 19.3714L6.38191 19.3714L8.3816 19.3714H11.2394H11.8138H12.7508V13.2052L10.1577 15.7983L9.46484 15.1054L12.8942 11.676L13.2407 11.3296L13.5871 11.676L17.0165 15.1054L16.3237 15.7983L13.7306 13.2052V19.3714H14.666H15.2404H18.0982H20.0982Z" fill="#8B94AC"/>
</g>
<defs>
<clipPath id="clip0_301_92163">
<rect width="24" height="24" fill="white" transform="translate(0 0.667969)"/>
</clipPath>
</defs>
</svg>
