<svg width="24" height="25" viewBox="0 0 24 25" fill="none" xmlns="http://www.w3.org/2000/svg">
<path d="M19.9993 12.6527V5.37381C19.9993 4.9813 19.6863 4.66829 19.3186 4.66829H12.01C11.0709 4.64344 11.0709 6.07934 12.01 6.04953H18.6131V12.6527C18.6131 13.0452 18.9261 13.383 19.3186 13.3582C19.7111 13.3582 20.0242 13.0452 19.9993 12.6527Z" fill="white"/>
<path d="M11.9844 19.2907H5.38125V12.6875C5.41106 12.2901 5.06823 11.9771 4.68069 11.9771C4.31302 11.9771 4 12.2901 4 12.6826V19.9913C4 20.3589 4.31302 20.6719 4.70553 20.6719H11.9844C12.9234 20.6967 12.9234 19.2907 11.9844 19.2907Z" fill="white"/>
<path d="M14.4143 9.54698C14.2305 9.54698 14.0764 9.62648 13.9423 9.75566L9.08805 14.6099C8.40736 15.2608 9.40107 16.2793 10.0519 15.5738L14.931 10.7196C15.3782 10.2774 15.0652 9.52214 14.4143 9.54698Z" fill="white"/>
</svg>
