<svg width="17" height="11" viewBox="0 0 17 11" fill="none" xmlns="http://www.w3.org/2000/svg">
<path d="M16 5.16797L16.3536 5.52152L16.7071 5.16797L16.3536 4.81442L16 5.16797ZM0.5 10.168C0.5 10.4441 0.723858 10.668 1 10.668C1.27614 10.668 1.5 10.4441 1.5 10.168L0.5 10.168ZM12.3536 9.52152L16.3536 5.52152L15.6464 4.81442L11.6464 8.81441L12.3536 9.52152ZM16.3536 4.81442L12.3536 0.814414L11.6464 1.52152L15.6464 5.52152L16.3536 4.81442ZM16 4.66797L5 4.66797L5 5.66797L16 5.66797L16 4.66797ZM0.5 9.16797L0.5 10.168L1.5 10.168L1.5 9.16797L0.5 9.16797ZM5 4.66797C2.51472 4.66797 0.500001 6.68268 0.5 9.16797L1.5 9.16797C1.5 7.23497 3.067 5.66797 5 5.66797L5 4.66797Z" fill="white" fill-opacity="0.2"/>
</svg>
