<svg width="16" height="17" viewBox="0 0 16 17" fill="none" xmlns="http://www.w3.org/2000/svg">
<path d="M8.00033 13.0014C10.3936 13.0014 12.3337 11.0613 12.3337 8.66805C12.3337 6.27482 10.3936 4.33472 8.00033 4.33472C5.60709 4.33472 3.66699 6.27482 3.66699 8.66805C3.66699 11.0613 5.60709 13.0014 8.00033 13.0014Z" stroke="#E4E4E4" stroke-linecap="round" stroke-linejoin="round"/>
<path d="M12.7597 13.4279L12.673 13.3412M12.673 3.99455L12.7597 3.90789L12.673 3.99455ZM3.23967 13.4279L3.32634 13.3412L3.23967 13.4279ZM7.99967 2.05455V2.00122V2.05455ZM7.99967 15.3346V15.2812V15.3346ZM1.38634 8.66789H1.33301H1.38634ZM14.6663 8.66789H14.613H14.6663ZM3.32634 3.99455L3.23967 3.90789L3.32634 3.99455Z" stroke="#E4E4E4" stroke-width="2" stroke-linecap="round" stroke-linejoin="round"/>
</svg>
